# xmcd CD database file
#
# Track frame offsets:
#	150
#	22108
#	48577
#	66163
#	91610
#	116625
#	146495
#	170541
#
# Disc length: 2689 seconds
#
# Revision: 0
# Processed by: cddbd v1.5.2PL0 Copyright (c) Steve Scherf et al.
# Submitted via: CDex 1.70beta2
#
DISCID=6a0a7f08
DTITLE=Emil Kowalski - Koledy Jazzowe
DYEAR=1900
DGENRE=Jazz
TTITLE0=Gdy sie Chrystus rodzi
TTITLE1=Mizerna cicha
TTITLE2=Przybiezeli do betlejem
TTITLE3=Jezus malusienki
TTITLE4=Pojdzmy wszyscy do stajenki
TTITLE5=Cicha noc
TTITLE6=Gdy sliczna Panna
TTITLE7=Oj maluski maluski
EXTD=
EXTT0=
EXTT1=
EXTT2=
EXTT3=
EXTT4=
EXTT5=
EXTT6=
EXTT7=
PLAYORDER=
